<svg xmlns="http://www.w3.org/2000/svg" id="a" viewBox="0 0 411.302 199.605"><defs><clipPath id="b"><ellipse cx="78.476" cy="120.927" rx="60.047" ry="60.081" style="fill:none"/></clipPath></defs><path d="M93.801 43.715c9.158-.065 20.524 4.39 20.524 4.39l19.12-28.325c-9.814-4.45-18.069 1.641-18.069 1.641 2.898 1.336 4.268 7.408-.135 11.72-4.421 4.332-10.188 4.074-14.501 3.055-4.313-1.02-12.556-5.004-13.911-12.772-1.923-11.025 7.723-10.66 7.723-10.66-3.94-5.106-9.415-1.185-9.415-1.185C85.448 4.547 79.68.189 79.202.005L79.188 0l-.014.005c-.478.184-6.392 5.043-5.79 11.55 0 0-5.447-3.89-9.444 1.132 0 0 9.903.07 7.568 11.039-1.656 7.774-9.22 11.405-13.533 12.423-4.313 1.02-10.69 1.422-14.869-3.099-4.184-4.525-1.263-9.12-.142-11.599 0 0-8.22-6.12-18.034-1.672l19.12 28.325s10.382-4.069 19.295-4.372C27.237 50.842 0 82.67 0 120.862c0 43.267 34.952 78.37 78.16 78.616l2.516.026c-2.514-6.44-3.355-18.493-3.355-18.493l-3.169-.15c-31.14-2.284-55.696-28.273-55.696-59.997 0-33.226 26.935-60.16 60.161-60.16s60.161 26.934 60.161 60.16c0 22.585-12.445 42.263-30.852 52.55l-.975.493-4.138 2.035s1.156 14.882.888 19.445c31.118-10.47 53.534-39.878 53.534-74.525 0-38.224-27.282-70.072-63.434-77.147Zm-9.585-7.632c-4.477-.753-8.257-.334-10.24.019-.22.024-.437.05-.65.081 0 0 4.351-2.424 5.862-7.098 1.51 4.674 5.861 7.098 5.861 7.098-.271-.039-.55-.072-.833-.1Z" style="fill:#004b87"/><path d="M91.916 27.957c6.589 6.19 13.689 6.38 13.689 6.38-4.26-4.21-1.056-10.013-1.056-10.013l-4.176-1.946c-4.219 6.306-8.457 5.579-8.457 5.579ZM65.94 27.957c-6.588 6.19-13.688 6.38-13.688 6.38 4.26-4.21 1.055-10.013 1.055-10.013l4.177-1.946c4.219 6.306 8.457 5.579 8.457 5.579Z" style="fill:#004b87"/><ellipse cx="78.652" cy="120.927" rx="60.277" ry="60.081" style="fill:#c8d8eb"/><g style="clip-path:url(#b)"><path d="M35.444 77.518a.53.53 0 0 1-.527-.235L-33.98-35.18a.529.529 0 1 1 .89-.574L35.808 76.709a.529.529 0 0 1-.363.81ZM36.829 76.812a.53.53 0 0 1-.577-.334L-3.852-34.717a.529.529 0 1 1 .99-.379L37.241 76.1a.529.529 0 0 1-.413.712ZM38.251 76.428a.53.53 0 0 1-.605-.44L22.475-34.36a.53.53 0 0 1 1.047-.164l15.17 110.348a.53.53 0 0 1-.442.605ZM39.678 76.352a.53.53 0 0 1-.612-.552l7.813-111.335a.529.529 0 1 1 1.058.058L40.124 75.858a.53.53 0 0 1-.446.493ZM41.202 76.576a.53.53 0 0 1-.594-.66L73.233-37.097a.53.53 0 0 1 1.024.273L41.632 76.19a.53.53 0 0 1-.43.387ZM42.594 77.106a.529.529 0 0 1-.554-.764L103.933-40.9a.53.53 0 0 1 .943.482L42.985 76.824a.53.53 0 0 1-.39.282ZM43.89 77.938a.53.53 0 0 1-.496-.855L142.04-41.77a.53.53 0 0 1 .825.664L44.219 77.748a.529.529 0 0 1-.33.19ZM44.95 78.986a.53.53 0 0 1-.416-.934L195.967-40.689a.53.53 0 0 1 .668.821L45.202 78.874a.528.528 0 0 1-.252.112ZM45.773 80.258a.53.53 0 0 1-.324-.994L249.396-21.487a.53.53 0 1 1 .484.941L45.933 80.206a.532.532 0 0 1-.16.052ZM46.304 81.67a.53.53 0 0 1-.22-1.033l206.62-54.334a.53.53 0 1 1 .277 1.022L46.36 81.659a.586.586 0 0 1-.057.012ZM34.267 78.475a.53.53 0 0 1-.458-.15L-68.44-29.407a.529.529 0 1 1 .753-.745L34.56 77.579a.529.529 0 0 1-.294.896ZM33.34 79.625a.529.529 0 0 1-.37-.079L-118.244-23.31a.529.529 0 1 1 .578-.887L33.548 78.66a.529.529 0 0 1-.208.966ZM32.672 80.91a.528.528 0 0 1-.273-.03l-157.007-60.278a.529.529 0 1 1 .383-.987L32.782 79.894a.529.529 0 0 1-.11 1.016ZM32.29 82.33a.529.529 0 0 1-.168-.001l-155.213-25.873a.53.53 0 1 1 .172-1.045L32.294 81.285a.53.53 0 0 1-.004 1.044ZM32.204 83.761a.555.555 0 0 1-.057.006l-154.062 7.41a.53.53 0 1 1-.052-1.057l154.062-7.41a.53.53 0 0 1 .11 1.051ZM-117.28 125.075a.53.53 0 0 1-.217-1.035L32.19 84.142a.53.53 0 0 1 .27 1.023l-149.686 39.898a.537.537 0 0 1-.054.012ZM-113.88 162.33a.53.53 0 0 1-.322-.995l146.817-75.66a.529.529 0 1 1 .48.944l-146.818 75.66a.533.533 0 0 1-.158.05ZM-107.602 205.026a.53.53 0 0 1-.416-.934S15.51 101.426 33.347 87.034a.53.53 0 0 1 .666.823c-17.84 14.39-141.365 117.058-141.365 117.058a.527.527 0 0 1-.25.111ZM-78.832 230.781a.529.529 0 0 1-.494-.857L34.32 88.164a.53.53 0 0 1 .821.669l-113.644 141.76a.529.529 0 0 1-.329.188ZM-33.666 230.373a.529.529 0 0 1-.553-.764L35.544 89.117a.53.53 0 0 1 .943.484l-69.764 140.491a.53.53 0 0 1-.39.281ZM.819 227.858a.529.529 0 0 1-.594-.662l36.67-137.44a.531.531 0 0 1 1.023.278l-36.67 137.44a.53.53 0 0 1-.43.384ZM30.696 228.764a.53.53 0 0 1-.612-.552L38.29 90.101a.53.53 0 0 1 1.059.058l-8.207 138.112a.53.53 0 0 1-.446.493ZM60.782 227.705h-.005a.53.53 0 0 1-.602-.445L39.797 90.158a.52.52 0 0 1 .447-.6.53.53 0 0 1 .602.445l20.378 137.102a.53.53 0 0 1-.442.6ZM90.914 223.448a.53.53 0 0 1-.577-.334L41.253 89.912a.53.53 0 1 1 .99-.377l49.085 133.202a.529.529 0 0 1-.414.711ZM126.298 221.466a.531.531 0 0 1-.527-.235L42.736 89.286a.529.529 0 1 1 .89-.576l83.035 131.946a.529.529 0 0 1-.363.81ZM171.279 218.078a.53.53 0 0 1-.459-.15L43.953 88.458a.529.529 0 1 1 .752-.746l126.867 129.47a.528.528 0 0 1-.293.896ZM230.015 206.991a.528.528 0 0 1-.37-.078L45.027 87.317a.529.529 0 1 1 .577-.888l184.618 119.595a.528.528 0 0 1-.207.967ZM257.875 167.651a.53.53 0 0 1-.268-.028L45.78 86.076a.529.529 0 1 1 .375-.99l211.825 81.547a.529.529 0 0 1-.106 1.018ZM258.428 118.702a.532.532 0 0 1-.165 0L46.3 84.625a.53.53 0 1 1 .166-1.046l211.963 34.076a.53.53 0 0 1-.001 1.046ZM254.222 71.732a.51.51 0 0 1-.052.005L46.49 83.177a.53.53 0 1 1-.063-1.057l207.681-11.439a.53.53 0 0 1 .115 1.05Z" style="fill:#fff"/></g><path d="m92.891 150.456-.142.13c.069.023.3.11.684.348a6.768 6.768 0 0 0-.068-.077c7.155 4.563 10.582 11.6 10.582 11.6l3.263-14.215c-1.242-.924-3.855-3.891-5.706-7.815-1.246 2.288-4.036 6.666-8.613 10.029ZM92.727 150.578l.002-.001-.002.001z" style="fill:none"/><path d="m40.7 77.56-.062-.002.04.017c.007-.006.015-.01.022-.014ZM40.628 78.597a.461.461 0 0 0 .115-.081c-.07.024-.117.051-.115.081ZM40.289 86.757l-.005.004.005-.002v-.002z" style="fill:#fff"/><path d="m92.729 150.577-.001.002.021.006c.048-.042.095-.086.142-.13-.054.041-.107.082-.162.122Z" style="fill:#004b87"/><path d="m92.693 150.637.056-.052-.021-.006-.035.058ZM105.866 181.152c-.186-6.225-1.466-10.33-2.091-13.323a16.177 16.177 0 0 0-.897-2.902c-1.02-2.457-3.218-7.4-5.428-10.125-1.89-2.333-3.255-3.397-4.017-3.868.73.829 7.464 8.79 9.036 21.742 0 0 1.662 16.908 1.204 22.697l2.27-8.474c.01-1.612-.01-3.511-.077-5.747ZM40.7 77.56c-.007.006-.015.01-.022.015l-.04-.017.062.003ZM40.743 78.516a.461.461 0 0 1-.115.081c-.002-.03.045-.057.115-.081ZM40.289 86.757v.002l-.005.002.005-.004z" style="fill:#004b87"/><path d="M38.181 75.792s4.062-.213 6.573 2.362c2.511 2.574 2.387 6.473 1.06 8.589-1.328 2.115-3.983 3.609-3.983 3.609l2.904.954s-.083 5.724-4.563 8.42c0 0 .208.747.622.954.415.207 1.452.332 1.41.913-.04.58-.29.912-.248 1.286.041.373.373.788.041 1.368-.332.581.25 1.079 0 1.66-.249.58-.83 1.659-.663 3.567.165 1.908.041 2.115 2.654 8.13 2.613 6.015 3.733 6.886 4.895 9.955a83.81 83.81 0 0 1 2.032 6.18s.208.747 2.738-2.903 5.185-7.715 8.172-10.287c2.986-2.572 3.028-3.11 3.028-3.11s-.332-1.868 1.742-5.186 2.696-3.899 2.737-6.886c.042-2.986-.083-3.484.498-6.636s1.037-7.633 4.065-10.744c3.028-3.11 6.969-2.489 9.707-1.617 2.737.87 4.894 3.691 5.848 8.13.954 4.438.166 9.582 1.245 13.854 1.078 4.272 2.53 4.106 3.816 6.346s1.618 1.784 2.489 2.53 4.355 3.153 5.973 6.389c1.617 3.235 3.526 7.84 4.065 9.872s-4.729 6.637-4.729 6.637-6.346 9.042-9.126 10.577c0 0 3.734 3.567 7.176 8.835 3.443 5.268 4.522 17.131 4.812 20.284s.297 14.985.297 14.985l-1.733.666s-9.805 4.001-22.996 4.13l-2.156-.161s-1.825-6.844-2.365-13.73c-.539-6.886-1.12-10.08-.041-17.422 1.078-7.342 2.447-10.784 6.678-15.679s4.148-8.71.788-11.573c-3.36-2.862-10.453-5.683-13.564-8.67-3.11-2.986-3.567-4.977-3.94-6.678s.249-5.184.249-5.184-4.48 3.318-5.02 7.59-.124 6.098-.124 6.098-4.106 3.899-7.176 5.641c-3.07 1.742-4.314 3.484-6.056 2.987-1.742-.498-3.235-2.116-4.853-7.508-1.618-5.393-3.567-17.173-3.567-17.173s-1.784-7.881-2.116-8.586c-.332-.705-1.784-2.24-1.825-2.987-.042-.746-.664-1.866-.415-2.654.25-.789 0-2.572.54-2.697.539-.124 1.576-.373 1.7-.954.124-.58-.83-1.576-.83-1.576s-1.866-1.618-2.613-4.19c-.746-2.571-.083-3.4-.083-3.4l2.738-.499s.332-.746-.415-1.285-2.82-2.157-3.609-5.102c-.788-2.946.706-7.965 5.517-8.42Z" style="fill:#fff"/><path d="M81.215 97.731c.122-.052.096-.192-.096-.296 0 0-.366-.402-.672-.428-.305-.026-.498.236-.253.401.244.166.899.376 1.021.323ZM79.644 100.979s-.864-.105-1.274.227c-.41.332.026.375.445.428s1.1-.08 1.545 0 .742.008.69-.158c-.053-.165-.751-.523-1.406-.497ZM82.14 100.62c.053-.121-.55-.558-.872-.776-.323-.218-.978-.663-1.903-.585-.926.079-1.685.428-2.06.768-.376.34-.681.541-.769.559-.087.018-.174.218.34.192.516-.026 1.031-.532 1.188-.628l.227-.14s.856-.393 1.702-.149c.847.245 1.327.594 1.545.69.219.096.55.192.603.07Z" style="fill:#004b87"/><path d="M132.398 67.072C118.006 52.68 98.87 44.754 78.517 44.754s-39.49 7.926-53.881 22.318C10.243 81.464 2.317 100.6 2.317 120.954s7.926 39.489 22.319 53.88c14.392 14.393 33.527 22.32 53.88 22.32s39.49-7.927 53.882-22.32c14.392-14.391 22.319-33.527 22.319-53.88s-7.927-39.49-22.319-53.882Zm-53.881 129.27c-41.57 0-75.388-33.82-75.388-75.388s33.819-75.389 75.388-75.389 75.388 33.82 75.388 75.389-33.819 75.388-75.388 75.388Z" style="fill:#fff"/><path d="M123.455 76.016C111.45 64.013 95.492 57.402 78.517 57.402s-32.935 6.61-44.938 18.614c-12.003 12.003-18.614 27.962-18.614 44.938s6.61 32.934 18.614 44.938c12.003 12.003 27.963 18.613 44.938 18.613s32.934-6.61 44.938-18.613c12.003-12.004 18.614-27.963 18.614-44.938s-6.61-32.935-18.614-44.938ZM78.517 183.694c-34.595 0-62.74-28.145-62.74-62.74s28.145-62.74 62.74-62.74 62.74 28.144 62.74 62.74-28.145 62.74-62.74 62.74ZM12.3 120.146c-.01.64-.14 1.19-.392 1.654a2.54 2.54 0 0 1-1.063 1.059c-.457.242-.996.359-1.618.349a3.625 3.625 0 0 1-1.333-.257 2.996 2.996 0 0 1-1.022-.688 2.925 2.925 0 0 1-.65-1.056 3.82 3.82 0 0 1-.209-1.363 4.58 4.58 0 0 1 .092-.84c.057-.28.134-.55.231-.806.097-.257.214-.48.35-.67l1.253.691-.003.21-1.563 1.299.017-1.098.828.004a1.202 1.202 0 0 0-.439.455c-.104.19-.159.41-.163.66-.005.331.096.63.304.899.208.267.49.48.848.64.357.16.763.244 1.216.251.5.008.937-.068 1.311-.227.374-.16.667-.39.878-.692.212-.302.32-.659.327-1.071.005-.308-.062-.566-.201-.775-.139-.208-.356-.381-.65-.52l.17-.328c.47.135.836.4 1.1.793.263.394.39.87.382 1.427Zm.041-2.527-.857 1.32-1.473-.024-.604.696-.191-.003.043-2.7.192.002.524.47 2.37.039-.004.2ZM12.876 112.464c-.088.65-.29 1.2-.605 1.65-.316.45-.722.777-1.218.98-.497.202-1.059.26-1.686.176-.645-.087-1.185-.297-1.62-.632a2.799 2.799 0 0 1-.943-1.296c-.192-.53-.242-1.132-.152-1.805.089-.657.29-1.208.606-1.655.315-.447.72-.773 1.213-.976.493-.202 1.057-.262 1.69-.176.639.086 1.178.297 1.616.631.439.335.754.767.947 1.297.192.53.243 1.132.152 1.806Zm-.59-.194a1.286 1.286 0 0 0-.168-.867c-.157-.255-.404-.466-.742-.632-.338-.166-.757-.282-1.258-.35-.547-.074-1.027-.07-1.44.013s-.743.232-.993.45-.397.5-.443.846c-.044.328.01.619.164.87.153.253.4.463.742.629.34.166.762.283 1.262.35.542.073 1.02.069 1.435-.013.416-.082.749-.233.998-.455.25-.22.398-.501.444-.841ZM13.453 107.87l-.186-.047-.415-.742-4.326-1.09-.717.457-.186-.047.525-2.087 5.83 1.469-.525 2.087Zm-2.781-2.3-.085-.022.203-1.377c.043-.265 0-.487-.129-.666-.128-.18-.333-.304-.615-.375-.676-.17-1.103.099-1.282.81l-.298 1.182-.49-.123.338-1.344c.207-.822.465-1.4.774-1.733.308-.333.688-.442 1.138-.328.468.117.763.395.886.834.124.438.082 1.069-.125 1.891l-.316 1.25Zm3.117.965-.49-.123.296-1.175c.112-.445.096-.807-.05-1.086-.145-.28-.417-.47-.818-.57-.371-.094-.682-.068-.932.08-.25.146-.42.402-.512.769l-.301 1.191-.422-.106.421-1.674c.19-.754.458-1.292.802-1.613.344-.32.762-.419 1.252-.296.394.1.697.293.91.58.212.287.33.666.356 1.137.025.47-.045 1.032-.21 1.686l-.302 1.2Zm-2.577-3.04-.304-.076.081-.321.304.076-.08.321ZM15.267 101.131l-.18-.062-.353-.774-4.221-1.445-.753.397-.181-.063.897-2.621.181.062.352.774 4.221 1.445.753-.397.182.062-.898 2.622ZM16.588 97.29l-.176-.077-.29-.8-4.095-1.77-.782.336-.176-.076.854-1.975 5.52 2.385-.855 1.976Zm-3.097-6.409-1.365 2.61-.376-.163 1.166-2.696.576.25Zm.742.35-1.454.728-.368-.16.4-1.232.066-.151 1.443.614-.087.2Zm1.364 1.367-.998 1.98-.36-.156.75-2.086.608.262Zm.582.214-1.032.455-.336-.145-.376-1.064.087-.2 1.744.754-.087.2Zm1.09 2.902-.375-.163.965-2.782.576.249-1.165 2.696Zm.689-1.592-.368-.16-.575-1.7.087-.2 1.45.684-.594 1.376ZM19.158 91.46l-.167-.094-.208-.825-3.895-2.176-.812.256-.167-.094 1.05-1.88 4.572 2.555.811-.255.168.093-1.352 2.42Zm-1.674-2.293-.41-.23.641-1.148c.182-.325.225-.644.13-.956-.095-.313-.305-.56-.63-.74-.319-.18-.627-.223-.924-.133-.297.09-.537.3-.721.63L15 87.61l-.44-.247.837-1.499c.382-.684.789-1.132 1.22-1.344.431-.212.88-.187 1.346.073.472.264.731.655.777 1.173.047.519-.123 1.123-.508 1.812l-.021.038.107.06-.834 1.491Zm3.702-1.336-3.176.092.172-1.47 3.7-.1-1.36.199 1.406-.443.167.094-.91 1.628ZM22.656 85.315l-.156-.11-.118-.843-3.347-2.602-1.065.1-.156-.112.58-.817 4.513 2.692.834-.167.156.112-1.241 1.747Zm2.762-3.874-6.132.327-.988-.702.505-.71 5.841-.309.14.42-3.709-1.971-.834.166-.156-.11 1.241-1.749.156.111.118.843 4.277 3.037-.459.647Z" style="fill:#fff"/><path d="M29.304 76.946c-.44.489-.916.83-1.43 1.023a2.718 2.718 0 0 1-1.558.122c-.524-.112-1.022-.38-1.493-.803-.483-.435-.81-.914-.982-1.435a2.8 2.8 0 0 1-.048-1.602c.14-.547.437-1.072.892-1.578.443-.492.92-.834 1.433-1.025a2.733 2.733 0 0 1 1.551-.122c.522.11 1.02.378 1.496.806.48.432.806.909.98 1.432.173.524.19 1.059.05 1.605s-.437 1.072-.891 1.577Zm-.378-.492c.217-.241.334-.512.349-.81.015-.3-.07-.613-.256-.94-.186-.328-.467-.661-.843-1-.41-.369-.809-.635-1.196-.8-.387-.165-.745-.227-1.074-.187-.33.04-.61.19-.844.448-.221.247-.34.517-.355.812-.015.295.071.608.26.937.188.33.47.663.845 1.001.406.365.804.631 1.193.798.389.167.75.23 1.08.187.332-.042.611-.19.84-.446ZM34.646 71.351l-.12-.15.12-.842-2.782-3.488-.847-.071-.12-.15 1.683-1.342 3.749 4.701-1.683 1.342Zm1.226-.978-.315-.395.947-.755c.309-.247.513-.538.613-.874.1-.336.094-.697-.017-1.084-.112-.386-.325-.777-.64-1.172-.326-.41-.666-.712-1.02-.91a1.97 1.97 0 0 0-1.057-.27c-.352.016-.68.146-.984.388l-.96.766-.316-.394 1.09-.87c.54-.431 1.086-.711 1.636-.842.55-.13 1.07-.112 1.56.055s.92.484 1.294.952a2.857 2.857 0 0 1 .605 2.36c-.077.41-.239.81-.485 1.2-.247.39-.574.748-.983 1.074l-.968.771ZM40.702 66.65l-.103-.16.208-.826-2.398-3.763-.835-.16-.103-.161 1.815-1.157 3.23 5.071-1.814 1.157Zm1.03-7.041-2.593 1.394-.22-.345 2.476-1.578.338.529Zm.419.705-1.613-.213-.216-.338 1.023-.796.139-.088.85 1.318-.184.117Zm.361 1.898-1.937 1.078-.21-.33 1.792-1.307.355.559Zm.362.502-1.11-.201-.197-.309.287-1.092.183-.117 1.021 1.603-.184.117Zm-.724 3.015-.22-.346 2.359-1.761.337.529-2.477 1.578Zm1.462-.932-.216-.338.479-1.73.183-.118.818 1.38-1.264.806ZM46.11 63.284l-.086-.171.285-.802-2.028-3.974-.816-.239-.087-.17 2.484-1.268.087.17-.302.81 2.38 4.665-1.916.979Zm1.53-.781-.187-.365 2.47-1.505.286.56-2.57 1.31Zm1.405-.717-.183-.357.51-1.894.195-.1.836 1.658-1.358.693ZM54.492 59.347l-.062-.182.396-.753-1.45-4.22-.775-.351-.062-.181 2.035-.7 1.954 5.687-2.036.7Zm2.652-6.605-2.848.748-.133-.388 2.777-.954.204.594Zm.149 2.713-2.136.595-.128-.37 2.048-.851.216.626Zm.092-1.93-1.518-.585-.13-.379 1.18-.534.156-.054.518 1.481-.206.07Zm-1.27 5.264-.132-.388 2.707-1.16.203.594-2.777.954Zm1.411-2.76-1.032-.457-.119-.346.534-.994.206-.071.617 1.797-.206.07Zm.23 2.196-.13-.379.87-1.57.206-.071.471 1.534-1.417.486ZM62.857 56.92a4.354 4.354 0 0 1-1.628.09 4.886 4.886 0 0 1-.785-.168l.278-1.368.212-.051 1.616 1.196-1.041.252-.199-.822c.133.154.339.251.618.294.28.043.577.026.894-.05.338-.082.581-.22.729-.414.147-.194.187-.43.12-.706-.056-.232-.214-.397-.474-.495-.26-.099-.675-.166-1.245-.2-.475-.035-.866-.1-1.172-.192s-.543-.233-.711-.42a1.647 1.647 0 0 1-.36-.729c-.136-.559-.037-1.052.296-1.48.333-.426.852-.725 1.558-.896.237-.057.487-.093.75-.106a4.481 4.481 0 0 1 1.56.201l-.361 1.325-.212.051-1.577-1.142 1.093-.265.192.832a1.09 1.09 0 0 0-.58-.326 1.655 1.655 0 0 0-.768.016c-.282.068-.496.19-.642.366a.631.631 0 0 0-.143.577c.055.226.212.39.473.49.26.102.676.17 1.247.206.478.027.87.09 1.174.186.305.096.54.237.708.42.166.184.287.429.36.734.1.406.084.783-.044 1.131a2.002 2.002 0 0 1-.687.902c-.33.253-.747.44-1.25.562ZM65.909 51.624l-.222-1.773.19-.026 1.286-.057.124.387-1.17 1.44-.208.029Zm2.062 4.102-.027-.19.584-.67-.703-5.015.654.146-2.498.57-.087-.621 5.324-.746.088.621-2.56.139.598-.321.702 5.013.746.486.026.19-2.847.398Zm3.487-4.879-1.521-1.063.013-.406 1.252-.299.198-.028.274 1.766-.216.03ZM72.499 55.083l-.009-.191.631-.768-.41.837 2.367-6.003.975-.04 2.858 5.785-.487-.8.701.713.008.191-2.751.115-.008-.192.832-.75.111.79-2.476-5.026.305-.013-1.233 5.18-.058-.783.9.67.007.191-2.263.094Zm1.425-1.803-.021-.506 3.317-.137.02.505-3.316.138Zm1.002-3.374-.72-.72-.007-.192 1.097-.045-.37.957ZM80.14 54.829l.014-.192.66-.537.325-4.45-.574-.627.014-.191 2.146.157-.438 5.997-2.146-.157Zm1.565.114.037-.504 1.208.088c.394.03.742-.046 1.043-.225.302-.179.542-.448.723-.808.18-.36.29-.79.326-1.295.038-.521-.006-.975-.132-1.36a1.968 1.968 0 0 0-.592-.917 1.678 1.678 0 0 0-.986-.382l-1.226-.09.037-.504 1.39.102c.69.05 1.281.215 1.773.492.493.278.862.644 1.108 1.099.247.455.348.98.304 1.578a2.85 2.85 0 0 1-1.157 2.143c-.336.25-.726.434-1.172.552a4.36 4.36 0 0 1-1.45.121l-1.234-.09ZM91.242 56.264c-.645-.127-1.182-.362-1.611-.704a2.715 2.715 0 0 1-.903-1.276c-.172-.507-.197-1.072-.075-1.693.126-.638.37-1.165.73-1.58a2.8 2.8 0 0 1 1.35-.86c.542-.16 1.145-.175 1.812-.043.65.128 1.188.364 1.615.705.427.342.727.765.9 1.27.173.506.197 1.071.073 1.698-.124.633-.367 1.158-.728 1.575-.36.418-.811.706-1.352.866-.541.16-1.145.174-1.812.042Zm.229-.576c.319.062.61.024.875-.117.265-.14.49-.373.676-.7.186-.329.328-.74.426-1.236.107-.541.132-1.02.075-1.437-.057-.417-.187-.757-.39-1.019a1.321 1.321 0 0 0-.817-.494 1.294 1.294 0 0 0-.88.11c-.26.138-.484.373-.67.703-.187.33-.33.743-.427 1.24-.106.535-.131 1.013-.074 1.432.056.42.187.761.393 1.024.205.263.476.427.813.494ZM98.787 57.989l.067-.18.785-.329 1.57-4.176-.374-.764.067-.18 2.015.758-2.116 5.628-2.014-.758Zm1.468.551.178-.473 1.133.427c.37.139.725.165 1.065.078.34-.086.647-.276.922-.57.274-.294.501-.677.679-1.15.184-.49.27-.937.257-1.342a1.968 1.968 0 0 0-.309-1.047 1.676 1.676 0 0 0-.837-.645l-1.15-.433.177-.472 1.305.49c.648.243 1.168.568 1.562.973.393.406.644.862.752 1.367.108.506.056 1.04-.154 1.6a2.85 2.85 0 0 1-1.716 1.729 3.42 3.42 0 0 1-1.28.198 4.357 4.357 0 0 1-1.426-.294l-1.158-.435ZM105.92 60.777l.086-.172.815-.245 1.997-3.99-.292-.798.086-.172 1.925.964-2.692 5.377-1.925-.964Zm1.535.768.184-.366 2.723 1.12-.28.561-2.627-1.315Zm3.205-1.494-1.921-1.108.175-.35 2.042.866-.296.592Zm-1.654 2.27.18-.358 1.73-.478.195.098-.765 1.41-1.34-.671Zm3.487-4.276-2.53-1.51.184-.366 2.626 1.315-.28.56Zm-2.08 2.574-.396-1.056.164-.327 1.083-.315.195.098-.85 1.698-.195-.098Zm1.69-1.853-.647-1.493.18-.359 1.207.469.148.074-.694 1.406-.195-.097ZM116.743 67.199c-.522-.369-.903-.788-1.144-1.257-.241-.47-.333-.961-.276-1.475s.266-1.025.625-1.533a3.62 3.62 0 0 1 .964-.957 2.922 2.922 0 0 1 2.383-.397c.42.11.835.308 1.243.597.228.16.442.344.642.549.2.205.378.42.536.646.157.225.276.447.355.667l-1.277.644-.17-.12-.192-2.024.896.634-.47.68a1.2 1.2 0 0 0-.129-.618 1.395 1.395 0 0 0-.452-.507 1.393 1.393 0 0 0-.913-.256c-.339.02-.675.134-1.008.34a3.075 3.075 0 0 0-.893.862c-.288.408-.472.812-.551 1.21-.08.4-.054.772.076 1.116.13.345.363.636.7.874.251.178.502.268.753.27.25.003.516-.077.796-.242l.175.326c-.376.31-.801.464-1.275.46-.473-.004-.938-.167-1.393-.489Zm2.064 1.458-.606-1.452.85-1.203-.235-.891.11-.157 2.207 1.559-.11.157-.685.167-1.368 1.936-.163-.116ZM127.229 68.84l-.146-.98.127-.143 1.69 1.496-.127.143-.911.043-1.963 2.219c-.316.357-.666.6-1.049.73-.383.131-.777.15-1.182.054-.405-.094-.79-.303-1.155-.627-.649-.573-1.014-1.162-1.096-1.766s.123-1.185.616-1.741l2.033-2.298-.076-.847.127-.144 2.075 1.837-.127.144-.85.027-1.854 2.095c-.393.443-.6.85-.624 1.217-.023.367.138.703.482 1.007.343.304.696.423 1.059.355.362-.067.74-.322 1.132-.766l1.819-2.056ZM125.19 73.976l.142-.13.993-.013-.904.227 6.114-2.063.66.719-2.579 5.915.297-.888-.091.995-.142.13-1.862-2.029.142-.13 1.11.153-.532.594 2.243-5.134.207.225-4.754 2.398.56-.55.07 1.12-.142.13-1.532-1.67Zm2.298-.075.372-.341 2.245 2.446-.372.342-2.245-2.447Zm3.225-1.41.086-1.013.141-.13.743.81-.97.334ZM130.313 79.66l.155-.112.836.156 3.53-2.349.243-1.04.155-.113.59.81-3.984 3.424-.107.843-.155.113-1.263-1.731Zm2.797 3.85 1.637-5.919.978-.713.514.704-1.562 5.636h-.443l3.047-2.892.107-.843.155-.113 1.263 1.732-.155.113-.836-.157-4.238 3.092-.467-.64ZM134.358 85.252l.167-.095.972.205-.932.023 6.418-.675.486.846-3.81 5.208.483-.802-.307.951-.166.096-1.373-2.387.166-.096 1.05.392-.649.463 3.313-4.518.152.264-5.163 1.3.666-.413-.177 1.107-.166.096-1.13-1.964Zm2.258.431.438-.252 1.655 2.878-.437.252-1.656-2.878Zm3.455-.67.307-.97.166-.096.547.952-1.02.114ZM138.783 93.835a2.722 2.722 0 0 1-.21-.78 3.387 3.387 0 0 1 .003-.86c.038-.287.106-.548.205-.783l1.396.18.089.199-1.156 1.602-.397-.892 1.234-.55c-.32.296-.524.57-.612.822-.088.252-.07.519.056.8.106.239.29.381.553.427.262.045.573-.013.934-.174l3.16-1.408.281-.803.175-.078 1.128 2.53-.175.079-.785-.327-2.921 1.301c-.631.282-1.206.31-1.722.086-.517-.224-.929-.682-1.236-1.37ZM146.981 100.497l.368-.919.182-.06.704 2.145-.182.06-.808-.423-2.816.924c-.453.148-.877.182-1.273.101-.397-.081-.746-.264-1.048-.55s-.528-.662-.68-1.125c-.27-.823-.288-1.515-.054-2.078.234-.563.704-.96 1.411-1.193l2.915-.956.361-.77.183-.06.864 2.633-.183.06-.747-.406-2.658.873c-.563.184-.947.43-1.153.736-.205.305-.236.676-.093 1.112.143.436.387.717.734.841.347.125.802.095 1.365-.09l2.608-.855ZM142.628 103.903l.187-.04.865.489-.895-.26 6.321 1.296.208.954-5.206 3.812.704-.617-.581.813-.187.041-.588-2.69.188-.041.882.69-.758.246 4.523-3.306.065.298-5.315-.32.761-.194-.504 1.002-.187.04-.483-2.212Zm2.022 1.093.494-.108.708 3.244-.494.108-.708-3.244Zm3.496.406.585-.833.187-.04.235 1.072-1.007-.2ZM144.237 112.089l.19-.023.66.598 5.027-.597-.16.651-.517-2.51.623-.073.633 5.339-.623.074-.084-2.561.308.604-5.027.596-.5.735-.191.022-.339-2.855Zm4.145-1.975 1.777-.184.022.19.03 1.287-.39.116-1.415-1.201-.024-.208Zm.66 5.564 1.094-1.499.407.022.272 1.258.023.2-1.77.236-.026-.217ZM144.724 120.732c-.005-.657.117-1.23.366-1.72s.604-.87 1.067-1.14c.463-.272 1.01-.41 1.644-.415.65-.005 1.215.127 1.694.397s.85.652 1.116 1.15c.265.498.4 1.086.406 1.766.005.662-.117 1.237-.366 1.724a2.738 2.738 0 0 1-1.063 1.137c-.46.27-1.01.408-1.648.414-.645.004-1.208-.128-1.69-.397s-.854-.653-1.12-1.15c-.265-.498-.4-1.087-.406-1.766Zm.611.108c.003.326.1.603.29.835.19.23.465.404.823.52s.79.173 1.296.17c.552-.005 1.026-.078 1.423-.217.397-.14.703-.335.919-.587.216-.251.322-.551.32-.9a1.295 1.295 0 0 0-.286-.839c-.188-.228-.462-.4-.823-.516s-.794-.172-1.3-.168c-.546.004-1.019.076-1.419.216-.4.139-.707.336-.923.59a1.324 1.324 0 0 0-.32.896ZM25.017 168.386l.106-.31 1.36.083c.705.046 1.286.062 1.744.048.458-.013.828-.061 1.11-.143.281-.082.51-.201.686-.357.272-.24.427-.501.466-.782.039-.281-.046-.54-.253-.773a1.16 1.16 0 0 0-.527-.343 1.172 1.172 0 0 0-.621-.032l.625-.496.627.71-1.741.207-.136-.154.447-1.329c.24.077.466.175.68.294s.418.257.615.412c.198.156.378.325.54.509.53.6.845 1.144.941 1.628.096.484-.029.88-.376 1.187a1.428 1.428 0 0 1-.58.301 3.103 3.103 0 0 1-.863.086 8.545 8.545 0 0 1-1.262-.137 30.484 30.484 0 0 1-1.775-.367l-.595-.078.247-.127 1.69 1.912 1.235.093.141.16-1.473 1.257-3.059-3.459ZM32.832 176.551c-.424-.37-.71-.78-.86-1.226a2.406 2.406 0 0 1-.045-1.381c.12-.475.377-.937.771-1.386.427-.488.878-.834 1.352-1.04.474-.205.948-.27 1.421-.193.474.077.923.301 1.347.672.42.367.704.774.854 1.22.15.447.164.907.044 1.382-.12.474-.377.936-.77 1.386-.424.484-.873.83-1.35 1.036a2.511 2.511 0 0 1-1.424.196c-.474-.077-.92-.299-1.34-.666Zm.354-.403a.837.837 0 0 0 .643.217c.24-.02.508-.136.804-.349.296-.212.622-.523.98-.93.562-.644.916-1.19 1.06-1.64.144-.45.074-.798-.208-1.045a.833.833 0 0 0-.647-.22c-.238.02-.506.137-.804.348-.298.21-.625.52-.983.928-.562.644-.915 1.19-1.057 1.643-.142.45-.071.8.212 1.048ZM37.85 180.44l.027-.328 1.34-.252a19.033 19.033 0 0 0 1.702-.382c.44-.126.787-.263 1.04-.412.253-.149.446-.32.578-.514.205-.3.291-.59.26-.873-.032-.281-.177-.51-.435-.687a1.169 1.169 0 0 0-.595-.203 1.174 1.174 0 0 0-.61.122l.484-.634.783.534-1.638.628-.169-.116.107-1.398c.25.015.494.055.73.118s.47.146.699.248c.23.103.446.223.648.36.662.453 1.1.902 1.312 1.348s.188.86-.073 1.243c-.117.171-.28.316-.488.434s-.48.217-.816.295a8.57 8.57 0 0 1-1.257.178c-.502.04-1.106.066-1.81.08l-.596.07.207-.184 2.108 1.439 1.22-.213.177.12-1.12 1.58-3.814-2.602ZM45.527 183.747l-.007-.286 3.947-2.63 1.77.906-.099.195-5.226 1.72-.096.149-.289-.054Zm0 0 .549-.36 4.542 2.329-.26.507-4.831-2.476Zm1.029 2.09.084-.163.947-.07 1.105-2.157.213-.079 1.14.584-1.182 2.306.496.81-.084.163-2.72-1.393ZM110.45 186.126l-.276-.177.405-1.302c.212-.673.366-1.234.462-1.682.095-.448.137-.819.124-1.111a1.768 1.768 0 0 0-.182-.752c-.169-.322-.385-.535-.65-.64-.263-.103-.533-.083-.81.062-.192.1-.345.245-.459.43a1.172 1.172 0 0 0-.179.596l-.332-.725.838-.44-.213 1.741-.181.095-1.185-.75c.131-.215.28-.412.447-.59.166-.18.349-.346.547-.5.198-.156.406-.29.622-.403.71-.374 1.312-.549 1.806-.527.493.021.848.237 1.063.648.097.183.148.395.155.634.007.24-.034.526-.122.86s-.233.73-.434 1.193c-.2.462-.46 1.007-.78 1.635l-.217.56-.064-.27 2.259-1.186.385-1.177.188-.1.87 1.73-4.087 2.148ZM120.24 180.506c-.462.322-.929.5-1.398.538s-.92-.06-1.351-.293c-.43-.231-.817-.592-1.158-1.084-.37-.532-.596-1.053-.68-1.563-.084-.51-.03-.986.158-1.426.19-.441.515-.822.979-1.143.457-.318.921-.496 1.39-.533.47-.037.921.061 1.352.293.43.231.816.593 1.157 1.084.367.528.593 1.048.678 1.56.085.512.033.989-.156 1.43-.19.44-.513.82-.97 1.137Zm-.305-.44a.839.839 0 0 0 .367-.571c.039-.238-.009-.527-.144-.865-.134-.339-.356-.73-.665-1.176-.488-.702-.932-1.178-1.333-1.427-.401-.248-.756-.266-1.065-.052a.835.835 0 0 0-.37.574c-.037.236.01.524.143.864.132.341.353.733.662 1.179.487.702.933 1.178 1.336 1.424.404.248.76.264 1.068.05ZM124.495 173.066l-.156-.176c.18-.158.306-.335.38-.53.073-.196.098-.394.075-.593a.942.942 0 0 0-.236-.524.865.865 0 0 0-.66-.307c-.26-.004-.504.094-.73.294-.175.154-.311.33-.41.529a1.62 1.62 0 0 0-.164.638l-.436-.544.714-.765.223 1.85-.16.142-1.323-.453c.121-.353.296-.692.525-1.017.229-.326.511-.637.848-.935.354-.312.698-.542 1.032-.688s.641-.205.92-.177c.28.03.515.15.704.364.307.347.364.765.172 1.252s-.632 1.034-1.318 1.64Zm2.46 2.178c-.345.305-.696.548-1.053.729s-.733.304-1.13.371l-.31-1.381.16-.141 1.838.468-.798.604-.514-.53c.232.048.456.041.67-.021.214-.063.421-.183.622-.36.17-.15.287-.321.35-.512.064-.19.073-.386.027-.588a1.242 1.242 0 0 0-.29-.554 1.131 1.131 0 0 0-.55-.352c-.212-.06-.43-.063-.654-.011s-.43.163-.622.333l-.306-.346c.734-.648 1.374-1.032 1.922-1.15.548-.12 1 .022 1.355.424.24.272.373.577.397.914.024.336-.057.684-.245 1.044-.187.359-.477.712-.869 1.059Zm-1.826-2.66-.156-.176.294-.26.156.177-.294.26ZM133.493 168.71c-.373.422-.783.707-1.23.854-.448.148-.908.16-1.382.038-.473-.122-.934-.381-1.382-.777-.486-.43-.83-.881-1.033-1.357a2.513 2.513 0 0 1-.186-1.423c.079-.473.304-.92.677-1.342.37-.418.778-.7 1.226-.849.447-.147.907-.16 1.38-.038.474.122.935.382 1.383.777.482.426.825.877 1.03 1.354s.268.953.189 1.426c-.079.473-.303.919-.672 1.337Zm-.402-.356a.837.837 0 0 0 .22-.642c-.018-.24-.133-.509-.344-.806-.212-.296-.52-.625-.926-.984-.641-.565-1.186-.921-1.635-1.067-.449-.146-.798-.079-1.046.202a.836.836 0 0 0-.224.646c.02.238.136.507.345.806.21.3.518.628.924.987.64.566 1.187.92 1.637 1.065.451.143.8.075 1.049-.207Z" style="fill:#fff"/><path d="M81.818 162.38s-6.045 17.321 3.94 36.883l3.804-.407s-4.687-6.046-7.132-17.66c0 0-2.378-12.295-.612-18.816ZM91.614 126.356c-6.94-2.827-10.346-4.659-10.346-4.659.385.61 4.144 3.181 7.486 4.627 3.341 1.446 6.619 4.016 6.619 4.016 5.044 4.434 4.048 8.676 4.048 8.676 1.96-5.206-.867-9.832-7.807-12.66Z" style="fill:#004b87"/><path d="M133.248 91.175c-.491-1.096-1.341-.812-1.341-.812l-1.102.35-5.467 1.606 1.5-7.395s.29-1.053.347-1.908c.06-.88-.875-1.833-2.626-3.646-1.495-1.549-2.507-2.13-2.507-2.13l-.397 1.773-3.429 15.62-14.59 4.76s-2.534.789-3.886 2.789c-1.352 2-1.662 2.929-1.07 3.323 0 0 .14.254 1.83-.225 1.69-.48 16.703-4.563 16.703-4.563l-7.887 36.702a96.2 96.2 0 0 1-.913-2.59c-.862-2.587-2.832-10.223-7.143-14.78-2.246-2.375-3.956-3.611-5.08-4.252-.809-1.738-1.988-3.163-2.91-4.337-1.64-2.088-2.072-3.166-2.37-6.033-.298-2.867.017-5.27-.928-9.133a22.072 22.072 0 0 0-1.026-3.186c-.672-1.628-1.261-2.382-1.261-2.382-2.52-3.1-6.282-3.846-6.282-3.846 4.143-.116 6.364 3.05 6.364 3.05s-.007-.036-.025-.097c-.113-.387-.677-1.9-2.908-3.417-2.586-1.757-5.27-1.541-5.27-1.541-8.1.216-9.103 7.486-9.856 10.266-.753 2.78-1.506 7.008-1.506 10.135s-1.563 5.155-1.563 5.155c-2.548 2.895-3.07 6.95-3.07 6.95s-1.158 1.042-3.88 3.88c-2.54 2.647-7.6 10.134-8.266 11.126-.104-.567-.471-2.311-1.425-4.537 0 0-1.731-3.607-3.088-5.944-1.356-2.338-3.924-8.253-4.256-9.177-.332-.923-1.024-2.9-.75-4.53 0 0 .288-1.155.433-1.429.144-.274-.03-.664-.03-.664s.448-.678.058-1.385c0 0 .549-.981.058-2.12 0 0 .49-.16.534-.968.043-.808-.967-1.096-.967-1.096s-.793-.577-1.197-.78c0 0 2.828-1.687 3.665-4.27.837-2.583.779-3.348.779-3.348s.346.101.49-.057c.145-.16.347-.635-.115-.938-.433-.284-1.728-.758-2.732-.912a7.928 7.928 0 0 0 3.55-10.917 6.832 6.832 0 0 0-.824-1.231 7.91 7.91 0 0 0-6.716-2.907l-.002.019c-7.526.667-7.56 7.581-7.56 7.581s.04.624.295 1.536a7.927 7.927 0 0 0 3.42 5.355c-.688.097-2.234.355-2.864.798 0 0-.116.721.086.837s.433.13.433.13-.188 2.625.88 4.92c1.068 2.294 2.915 3.42 2.915 3.42s-.996.057-1.5.519c-.506.461-.405.938-.405 1.125s.015.418-.159.592c-.173.173-.432.75-.115 1.414 0 0 .115.317-.029.562-.144.246-.173.736-.043 1.04.13.302.202.952.188 1.096s.014 1.068.577 2.005c.562.938 1.486 1.674 2.438 5.498.952 3.823 2.265 10.807 2.265 10.807s.91 5.728 1.083 6.71c.14.793 1.546 5.602 2.184 7.562a.683.683 0 0 0 .032.222c.637 1.97 2.606 6.892 7.819 4.286 5.212-2.606 11.988-8.572 11.988-8.572-.984-2.2-.174-7.529-.174-7.529s.116 3.244 1.1 7.356c.985 4.112 4.808 8.397 5.85 13.378 1.043 4.98-1.621 4.75-4.98 15.406-3.36 10.656-4.24 18.33-4.24 18.33-.234 5.407-.134 13.785-.134 13.785l.135 1.943s6.783 2.29 20.293 2.196a5.697 5.697 0 0 1-.259-.648c-.88-2.543-2.396-9.82-2.878-14.974-.534-5.707-.835-11.115.3-17.79 1.135-6.677 5.074-12.017 6.71-13.62 1.635-1.602 4.172-4.072 3.27-7.91-.9-3.839-4.038-5.675-9.246-8.579-5.207-2.904-7.276-4.706-7.276-4.706-5.408-4.373-3.872-10.748-3.872-10.748-.267 6.609 9.012 11.95 14.453 13.952 5.44 2.003 8.044 4.707 8.044 4.707 5.498 5.321 3.461 10.15 2.897 11.226l.064.05c3.561-3.258 5.79-8.615 4.216-12.878-1.602-4.34-4.373-5.942-11.416-10.114-7.043-4.173-9.87-9.228-9.87-9.228-1.497-2.532-1.597-3.817-1.584-5.177.012-1.36-.175-3.218 1.883-4.403 2.059-1.185 2.782-1.085 3.805-1.46 1.023-.374 4.615-2.582 4.615-2.582s-.698.2-1.41.138c-.71-.063-1.359-.624-2.856-1.16-1.497-.537-3.942.948-4.628 1.26-.686.311-1.023-.849-1.21-1.435-.187-.586-1.122-2.607-1.546-3.742-.425-1.136-.3-1.622.15-2.283.448-.661 1.97-1.984 3.205-2.545 1.267-.576 1.457-.128 1.568.442.12.616.061 1.611-.175 2.193-.192.472.09.48.49.346.412-.137.999-.673.999-1.247s-.138-3.193-.138-3.193c-2.831.087-4.478 1.185-5.326 1.709s-1.934 1.384-1.46.586c.474-.798 2.084-1.958 2.084-1.958-1.423.66-2.52 1.983-2.757 2.058-.237.075-.374-.162.486-1.085.861-.923 2.283-1.784 2.283-1.784s-.3-.013-1.297.624c-.998.636-1.909 1.334-2.046 1.097-.137-.237.35-.898.35-.898 1.16-1.896 4.615-4.615 8.93-4.166 4.317.449 7.148 4.166 7.21 4.64.063.474-.336.374-.96-.212-.623-.586-1.87-1.098-1.87-1.098 1.01.724 3.043 2.62 3.205 2.944.162.325.025.699-.486.063-.512-.636-1.522-1.248-1.522-1.248.898.824 1.784 1.909 1.684 2.333-.1.424-.412.175-.674-.15-.262-.324-1.335-1.285-1.335-1.285-2.669-2.183-5.912-2.183-5.912-2.183s-.075.736.598 1.747c.674 1.01 1.822.823 2.109.524s.461-.836 1.659-.013c1.197.824 2.414 2.553 2.414 2.553s.127 1.687.127 3.01-.587 5.698-3.206 6.746c-2.62 1.048-2.453 1.952-2.453 1.952 1.475.034 3.995-.712 3.995-.712s-.266 1.823 1.226 4.823c1.492 3 3.463 3.495 3.463 3.495 2.421.329 4.58 1.06 5.942 1.729.24.118.464.258.678.42 1.136.857 3.133 2.602 4.848 5.317a15.47 15.47 0 0 0-2.446-2.087c-4.338-3.02-10.314-4.177-16.483-5.013-5.973-.808-6.735-3.665-6.778-3.846.645 3.398 2.73 4.33 4.528 5.164 1.8.835 4.306 1.67 11.889 4.627 7.583 2.956 9.478 7.133 9.478 7.133 1.764 3.526 1.194 6.843.414 8.994-1.199 2.838-3.014 5.008-3.014 5.008 1.77-1.413 2.864-3.094 3.294-3.833 1.818 3.575 4.192 6.253 5.36 7.122l-3.263 14.214s-3.427-7.036-10.582-11.6l.068.077c.763.471 2.186 1.702 4.077 4.035 2.21 2.725 4.348 7.501 5.369 9.958.39.938.688 1.908.896 2.902.625 2.994.99 7.643 1.64 13.818.233 2.223.538 3.64.528 5.252l4.78-17.834 7.976-41.93c.691-.982 1.879-2.734 2.465-3.964.856-1.798.085-1.541.085-2.74s.343-1.283-.342-1.797c-.223-.167-.373-.324-.504-.456l3.731-19.612 9.1-2.872.618-.194s.682-.25.737-.66c.132-.983-.997-2.898-1.341-3.665Zm-93.496-2.861c-.378 0-.748-.037-1.106-.105 2.858-.222 5.105-2.502 5.105-5.28 0-2.566-1.914-4.705-4.457-5.194a5.88 5.88 0 0 1 .458-.018c3.073 0 5.563 2.372 5.563 5.298s-2.49 5.298-5.563 5.298ZM188.693 141.06c-3.159 0-6.147-.376-8.963-1.128a40.27 40.27 0 0 1-8.161-3.17c.388-1.942.643-3.936.765-5.976.12-2.04.182-3.983.182-5.83a18.245 18.245 0 0 1 3.79-.655 54.158 54.158 0 0 1 3.861-.145c.242 2.914.63 5.21 1.166 6.886.534 1.675 1.396 2.877 2.586 3.606 1.191.73 2.782 1.094 4.774 1.094 2.72 0 4.663-.572 5.829-1.713 1.166-1.141 1.75-2.442 1.75-3.898 0-1.458-.573-2.697-1.713-3.716-1.143-1.02-2.612-1.956-4.409-2.806-1.797-.85-3.705-1.75-5.72-2.696a32.08 32.08 0 0 1-5.684-3.425c-1.774-1.335-3.243-3-4.409-4.991-1.166-1.992-1.748-4.47-1.748-7.433 0-3.449.776-6.23 2.332-8.343 1.553-2.114 3.606-3.68 6.157-4.701 2.55-1.02 5.38-1.53 8.489-1.53 1.846 0 3.68.146 5.501.438 1.823.291 3.522.667 5.101 1.129 1.578.462 2.83 1.01 3.753 1.64 0 1.894.024 3.85.073 5.866.047 2.016.17 3.606.364 4.772-.874.535-2.03.912-3.46 1.13-1.434.219-2.71.327-3.827.327-.39-2.67-.96-4.735-1.712-6.193-.754-1.457-1.676-2.478-2.77-3.06-1.092-.583-2.344-.874-3.752-.874-1.797 0-3.291.412-4.48 1.239-1.193.826-1.786 2.065-1.786 3.715 0 1.652.607 3.036 1.821 4.154 1.214 1.118 2.769 2.125 4.664 3.023 1.894.9 3.91 1.823 6.048 2.77a35.308 35.308 0 0 1 6.047 3.424 16.831 16.831 0 0 1 4.664 4.955c1.215 1.968 1.822 4.409 1.822 7.324s-.717 5.49-2.15 7.724c-1.433 2.235-3.546 3.971-6.34 5.21-2.793 1.239-6.278 1.858-10.455 1.858ZM238.097 90.71l16.468 36.579c1.117 2.284 1.99 4.02 2.623 5.21.631 1.19 1.226 1.98 1.786 2.368.558.39 1.177.632 1.858.73.193.63.338 1.372.437 2.221.096.85.145 1.786.145 2.806-.874-.098-1.992-.159-3.352-.183-1.36-.024-2.72-.036-4.08-.036h-5.648c-1.045 0-2.161.012-3.35.036-1.193.024-2.322.049-3.39.073-1.069.024-1.894.06-2.478.11 0-1.166.048-2.137.147-2.914a12.33 12.33 0 0 1 .437-2.114c1.7-.34 2.707-.912 3.024-1.713.315-.801.084-2.1-.692-3.898l-6.558-14.938c-1.119-2.575-2.03-4.966-2.733-7.177a79.242 79.242 0 0 1-1.786-6.522h2.114a155.852 155.852 0 0 1-1.931 6.63 81.269 81.269 0 0 1-2.587 6.997l-5.538 14.427c-.632 1.556-.754 2.915-.364 4.08.388 1.167 1.408 1.871 3.06 2.114.194.681.34 1.433.437 2.26.097.826.146 1.748.146 2.768a35.681 35.681 0 0 0-2.259-.11c-.972-.024-1.98-.049-3.024-.073-1.045-.024-1.98-.036-2.805-.036-1.216 0-2.467.012-3.753.036-1.288.024-2.296.085-3.024.183 0-.972.047-1.846.146-2.623.096-.778.266-1.578.51-2.405.825-.147 1.53-.45 2.113-.912.582-.46 1.154-1.202 1.712-2.222s1.227-2.478 2.004-4.372l15.375-37.017c.826-.193 1.59-.302 2.295-.328a76.353 76.353 0 0 1 2.515-.036Zm2.696 32.207 1.311 4.372c-3.255 0-6.644.049-10.165.145a141.55 141.55 0 0 0-10.31.657l1.093-5.174h18.07ZM290.78 135.523c1.941 0 3.557-.328 4.845-.984 1.287-.655 2.355-1.7 3.205-3.133.85-1.433 1.615-3.316 2.296-5.647 1.36.145 2.611.425 3.753.837 1.141.414 2.003.912 2.587 1.494-.535 1.653-.997 3.596-1.384 5.83a79.495 79.495 0 0 0-.875 6.63c-1.312-.048-2.987-.072-5.028-.072s-4.18-.013-6.413-.037a577.364 577.364 0 0 0-6.34-.036c-1.31 0-3 .012-5.063.036-2.065.024-4.202.049-6.412.073-2.212.024-4.24.048-6.086.073-1.847.025-3.182.037-4.007.037 0-.972.037-1.906.11-2.806.072-.898.206-1.64.4-2.222 1.312-.097 2.32-.352 3.024-.765.704-.412 1.19-1.166 1.458-2.259.265-1.093.4-2.707.4-4.846v-24.192c0-2.04-.135-3.57-.4-4.59-.268-1.021-.754-1.737-1.458-2.15-.705-.412-1.738-.692-3.097-.838-.146-.632-.255-1.445-.328-2.442a36.147 36.147 0 0 1-.11-2.586c1.41.048 2.708.085 3.9.109 1.19.025 2.405.049 3.643.073a219.118 219.118 0 0 0 8.015 0l4.263-.073c1.408-.024 2.598-.06 3.57-.109 0 .875-.024 1.76-.073 2.66-.048.9-.218 1.688-.51 2.368-1.311.146-2.32.413-3.024.801-.704.39-1.178 1.119-1.42 2.186-.244 1.07-.365 2.624-.365 4.664v23.827c0 2.09.17 3.73.51 4.92.34 1.19.935 2.016 1.786 2.477.85.463 2.051.693 3.607.693h1.02ZM351.988 120.367c0 4.177-.292 7.59-.874 10.237-.584 2.649-1.725 4.822-3.426 6.522-1.457 1.36-3.242 2.357-5.355 2.987-2.113.631-4.53.948-7.25.948-4.762 0-8.526-.632-11.295-1.895-2.77-1.263-4.736-3.23-5.902-5.902-1.166-2.671-1.749-6.048-1.749-10.129v-19.31c0-2.137-.122-3.727-.365-4.772-.243-1.044-.704-1.773-1.384-2.187-.681-.412-1.652-.715-2.915-.91a13.692 13.692 0 0 1-.4-2.369c-.073-.85-.11-1.736-.11-2.66.972.05 2.343.098 4.117.146 1.773.049 3.582.073 5.429.073h3.243c1.287 0 2.598-.011 3.934-.037 1.336-.023 2.562-.047 3.68-.072a44.734 44.734 0 0 0 2.55-.11c0 .973-.024 1.871-.073 2.697-.048.826-.17 1.603-.364 2.332-1.311.195-2.307.498-2.987.91-.68.414-1.142 1.143-1.384 2.187-.244 1.045-.365 2.635-.365 4.772v18.144c0 2.915.315 5.406.947 7.469.63 2.065 1.628 3.62 2.987 4.664 1.36 1.045 3.134 1.567 5.32 1.567 1.117 0 2.296-.23 3.534-.693 1.24-.461 2.27-1.25 3.097-2.367.535-.632.96-1.459 1.275-2.478.316-1.02.571-2.344.765-3.972s.292-3.68.292-6.158v-14.427c0-2.38-.145-4.237-.438-5.575-.29-1.335-.79-2.295-1.493-2.878-.705-.583-1.689-.97-2.951-1.165a38.695 38.695 0 0 1-.328-2.623 27.384 27.384 0 0 1-.109-2.405c.679.048 1.48.085 2.404.109.923.025 1.883.049 2.878.072.996.026 1.858.037 2.588.037 1.311 0 2.67-.024 4.08-.073 1.408-.048 2.574-.097 3.498-.145 0 .875-.037 1.725-.11 2.55-.073.827-.23 1.652-.474 2.478-1.214.145-2.149.51-2.805 1.093-.656.582-1.106 1.505-1.348 2.769-.244 1.263-.364 3.036-.364 5.319v15.23ZM362.845 140.624c0-.972.037-1.906.11-2.806.073-.898.206-1.64.4-2.222 1.312-.097 2.32-.351 3.024-.765.704-.412 1.19-1.166 1.458-2.259.266-1.093.4-2.707.4-4.846v-24.191c0-2.041-.134-3.571-.4-4.592-.268-1.02-.754-1.736-1.458-2.149-.705-.412-1.737-.692-3.097-.838-.146-.631-.254-1.445-.327-2.441a36.147 36.147 0 0 1-.11-2.587c1.069.048 2.38.085 3.935.109 1.555.026 3.218.05 4.992.073 1.772.025 3.435.037 4.991.037 1.117 0 2.332-.025 3.644-.073 1.311-.048 2.744-.073 4.298-.073 2.721 0 5.392.183 8.017.547 2.623.364 5.051 1.032 7.286 2.003a18.13 18.13 0 0 1 5.902 4.118c1.7 1.773 3.025 4.032 3.971 6.776.948 2.745 1.421 6.11 1.421 10.092 0 3.935-.486 7.312-1.457 10.129-.972 2.818-2.259 5.173-3.862 7.068-1.603 1.894-3.377 3.424-5.319 4.59-1.943 1.166-3.935 2.041-5.976 2.624-2.04.583-3.947.973-5.72 1.166-1.774.194-3.292.29-4.554.29-1.311 0-3 .013-5.064.038l-6.412.073c-2.212.023-4.24.048-6.085.072-1.847.025-3.182.037-4.008.037Zm23.901-5.1c1.117 0 2.356-.23 3.717-.693 1.358-.461 2.646-1.36 3.862-2.696 1.213-1.336 2.197-3.303 2.95-5.903.753-2.598 1.13-6.084 1.13-10.457 0-3.885-.39-7.128-1.166-9.727-.777-2.598-1.835-4.639-3.17-6.121-1.336-1.481-2.83-2.538-4.481-3.17a14.385 14.385 0 0 0-5.174-.947c-.923 0-1.81.109-2.66.327s-1.47.5-1.858.838l.947-2.841v33.3c0 2.09.17 3.729.511 4.92.338 1.19.934 2.016 1.785 2.477.85.463 2.051.692 3.607.692Z" style="fill:#004b87"/><path d="M175.008 161.768a6.91 6.91 0 0 1-1.8-.228 8.083 8.083 0 0 1-1.64-.636c.078-.39.13-.79.154-1.2.025-.41.037-.8.037-1.17a3.6 3.6 0 0 1 .761-.133c.273-.02.531-.029.775-.029.05.586.127 1.046.235 1.383.107.337.28.578.519.725.239.145.559.219.959.219.546 0 .936-.115 1.17-.345.235-.228.352-.49.352-.782s-.115-.541-.344-.747a3.68 3.68 0 0 0-.886-.563l-1.148-.541a6.439 6.439 0 0 1-1.142-.688 3.362 3.362 0 0 1-.885-1.002c-.235-.4-.352-.898-.352-1.493 0-.693.156-1.251.47-1.676.31-.424.723-.74 1.236-.943a4.543 4.543 0 0 1 1.704-.308c.371 0 .74.029 1.105.087.366.059.707.135 1.024.227.317.093.57.203.754.33 0 .38.005.773.015 1.178.01.405.034.725.073.958a1.851 1.851 0 0 1-.695.227 5.127 5.127 0 0 1-.768.066c-.078-.536-.193-.951-.344-1.243-.152-.294-.337-.499-.557-.616a1.579 1.579 0 0 0-.753-.175c-.361 0-.66.083-.9.25-.239.165-.359.413-.359.745s.122.61.366.834.556.427.937.607.785.367 1.215.556c.429.19.834.42 1.214.688s.692.6.936.995c.244.396.366.886.366 1.47 0 .586-.143 1.104-.431 1.552-.288.45-.712.798-1.273 1.047-.562.248-1.261.373-2.1.373ZM181.227 151.698c.206.01.464.018.776.023l.988.014c.346.005.68.007 1.002.007h.85v7.289c0 .419.033.748.102.987.068.239.188.405.358.498.171.093.412.139.725.139l-.469.98c-.263 0-.602.003-1.017.008l-1.288.014-1.222.015c-.37.005-.638.008-.805.008 0-.195.008-.384.022-.564.015-.18.042-.33.081-.446.263-.02.466-.071.607-.154.142-.083.239-.234.293-.454.054-.22.08-.543.08-.973v-4.859c0-.41-.026-.716-.08-.921-.054-.206-.151-.35-.293-.432-.141-.082-.349-.14-.621-.168a2.07 2.07 0 0 1-.074-.49c-.01-.2-.015-.374-.015-.52Zm6.293 3.279c-.01.234-.022.488-.036.76-.016.273-.023.581-.023.923 0 .37.007.695.023.973.014.278.027.529.036.753a5.39 5.39 0 0 1-.615-.03 2.534 2.534 0 0 1-.497-.102c-.039-.428-.152-.713-.336-.855-.186-.141-.518-.212-.996-.212h-.878v-.98h.878c.517 0 .861-.079 1.032-.235.17-.156.261-.434.27-.834.156-.069.337-.112.542-.133.205-.018.405-.028.6-.028Zm1.273-3.279c.01.235.03.508.059.82.029.312.064.617.102.914.04.299.088.564.147.798a2.8 2.8 0 0 1-.534.168c-.2.045-.447.066-.74.066a3.053 3.053 0 0 0-.27-.9 1.409 1.409 0 0 0-.623-.629c-.283-.15-.687-.227-1.214-.227h-1.449l.454-.966c.742 0 1.368-.002 1.88-.007.513-.005.945-.009 1.295-.014.352-.005.65-.013.893-.023Zm-.41 6.996c.273.029.525.085.754.168.23.083.403.183.52.3-.108.332-.2.723-.278 1.17-.079.45-.137.894-.176 1.333-.263-.01-.6-.016-1.01-.016-.41 0-.847-.002-1.309-.007-.463-.005-.905-.007-1.325-.007l.469-.98h.204c.43 0 .778-.071 1.047-.213.268-.141.485-.355.651-.644.166-.287.317-.656.453-1.104ZM196.886 161.768c-.977 0-1.835-.218-2.576-.653a4.54 4.54 0 0 1-1.734-1.807c-.416-.77-.623-1.663-.623-2.678 0-.829.137-1.558.41-2.188a4.459 4.459 0 0 1 1.113-1.573 4.707 4.707 0 0 1 1.602-.944 5.63 5.63 0 0 1 1.866-.314 6.96 6.96 0 0 1 1.646.197c.541.132 1.07.32 1.587.564-.058.331-.099.693-.124 1.083-.024.39-.036.785-.036 1.185-.127.059-.32.105-.578.139-.258.035-.49.051-.695.051-.01-.556-.088-.995-.234-1.317-.146-.322-.344-.554-.593-.695-.249-.142-.548-.212-.9-.212-.439 0-.817.1-1.134.3s-.568.473-.754.82a4.438 4.438 0 0 0-.417 1.17 6.488 6.488 0 0 0-.139 1.354c0 .81.115 1.536.344 2.18.23.644.571 1.151 1.024 1.522.455.372 1.037.556 1.749.556.371 0 .754-.055 1.15-.168.394-.112.787-.28 1.177-.505.088.088.166.195.235.322.067.128.111.259.13.395-.408.342-.899.629-1.47.864-.57.233-1.246.351-2.026.351ZM209.266 161.768c-.118-.255-.23-.5-.337-.74-.107-.239-.21-.478-.307-.717-.098-.24-.2-.486-.307-.74a10.56 10.56 0 0 0-.41-.884 3.322 3.322 0 0 0-.424-.63 3.764 3.764 0 0 0-.586-.534l.659.117c-.264.01-.496.017-.696.021-.2.007-.426.004-.68-.006l.117-1.068c.146.02.264.033.351.043a2.241 2.241 0 0 0 1.222-.197c.298-.142.542-.361.732-.659.19-.297.286-.67.286-1.12 0-.614-.15-1.097-.447-1.448-.298-.351-.73-.526-1.295-.526a2.412 2.412 0 0 0-.848.131l.116-.483v6.687c0 .479.024.835.073 1.068.05.235.13.388.242.462a.92.92 0 0 0 .46.124c.04.097.064.244.073.439.01.196.016.386.016.571-.186-.01-.425-.017-.717-.022l-.879-.015a43.297 43.297 0 0 0-.746-.007c-.361 0-.73.002-1.105.007s-.72.018-1.031.037c0-.214.007-.405.021-.571.016-.165.042-.312.081-.439.264-.02.466-.07.607-.154s.24-.23.294-.446c.053-.214.08-.531.08-.952v-4.901c0-.41-.027-.72-.08-.93-.055-.21-.152-.353-.294-.431s-.348-.133-.621-.161a2.373 2.373 0 0 1-.074-.527c-.01-.215-.014-.372-.014-.469a67.544 67.544 0 0 0 2.312.044c.312 0 .73-.009 1.251-.029.522-.019 1.066-.03 1.632-.03.82 0 1.49.12 2.012.36s.905.56 1.148.965c.244.406.366.857.366 1.353 0 .596-.115 1.11-.343 1.545a2.57 2.57 0 0 1-.945 1.017c-.4.244-.853.4-1.36.468l.277-.19c.294.136.53.285.71.446s.361.386.542.674c.18.288.408.694.68 1.221.147.274.278.486.395.637.118.152.25.258.396.322.146.063.331.105.556.124 0 .186-.01.361-.03.527s-.053.327-.101.483c-.665 0-1.258.01-1.779.03-.522.018-.939.053-1.25.102ZM214.637 151.698c.205.01.463.018.775.023l.989.014c.345.005.68.007 1.002.007h.849v7.289c0 .419.033.748.102.987.068.239.188.405.358.498.171.093.412.139.725.139l-.469.98c-.263 0-.602.003-1.017.008l-1.288.014-1.221.015c-.371.005-.64.008-.805.008 0-.195.007-.384.021-.564.016-.18.042-.33.081-.446.264-.02.466-.071.607-.154.142-.083.24-.234.294-.454.053-.22.08-.543.08-.973v-4.859c0-.41-.027-.716-.08-.921-.055-.206-.152-.35-.294-.432-.141-.082-.348-.14-.621-.168a2.07 2.07 0 0 1-.074-.49c-.009-.2-.014-.374-.014-.52Zm6.292 3.279c-.01.234-.021.488-.036.76-.015.273-.022.581-.022.923 0 .37.007.695.022.973s.027.529.036.753a5.39 5.39 0 0 1-.614-.03 2.534 2.534 0 0 1-.498-.102c-.039-.428-.151-.713-.336-.855-.186-.141-.518-.212-.996-.212h-.877v-.98h.877c.517 0 .862-.079 1.032-.235.171-.156.261-.434.27-.834.157-.069.337-.112.542-.133.205-.018.405-.028.6-.028Zm1.274-3.279c.009.235.028.508.058.82.029.312.064.617.103.914.039.299.087.564.146.798a2.8 2.8 0 0 1-.534.168c-.2.045-.447.066-.74.066a3.053 3.053 0 0 0-.27-.9 1.409 1.409 0 0 0-.623-.629c-.282-.15-.687-.227-1.214-.227h-1.449l.455-.966c.741 0 1.368-.002 1.88-.007.512-.005.944-.009 1.295-.014.351-.005.649-.013.893-.023Zm-.41 6.996c.272.029.525.085.753.168.23.083.403.183.52.3-.107.332-.2.723-.278 1.17-.079.45-.137.894-.176 1.333-.263-.01-.6-.016-1.01-.016-.41 0-.846-.002-1.309-.007-.463-.005-.905-.007-1.325-.007l.469-.98h.204c.43 0 .778-.071 1.047-.213.268-.141.485-.355.651-.644.166-.287.317-.656.454-1.104ZM227.968 152.723c-.38 0-.69.071-.929.212a1.47 1.47 0 0 0-.564.614 4.62 4.62 0 0 0-.35 1.033c-.234 0-.467-.012-.696-.037a1.779 1.779 0 0 1-.607-.168c.097-.4.177-.85.24-1.347s.096-.941.096-1.332l1.156.03c.4.01.856.014 1.369.014h1.837c.653 0 1.233-.002 1.74-.007l1.39-.014c.42-.005.81-.013 1.172-.023 0 .39.024.823.072 1.295.05.474.122.93.22 1.368-.176.08-.375.136-.6.17s-.468.05-.731.05c-.098-.643-.269-1.114-.513-1.411-.243-.298-.624-.447-1.141-.447h-3.16Zm.22-.498h2.531v6.893c0 .42.034.737.103.951.068.216.2.363.395.447.194.083.483.134.863.153.04.117.068.271.088.462.019.19.03.372.03.548a20.01 20.01 0 0 0-1.105-.037 135.079 135.079 0 0 0-2.628 0l-1.075.015c-.327.005-.598.012-.813.022 0-.166.018-.346.052-.541s.07-.352.11-.469c.38-.02.675-.07.885-.153a.749.749 0 0 0 .44-.447c.081-.214.123-.53.123-.951v-6.893ZM240.481 151.654l3.307 7.347c.225.46.4.808.527 1.047.126.239.246.397.358.475a.848.848 0 0 0 .373.146c.04.127.07.276.089.446.02.172.028.36.028.564a7.59 7.59 0 0 0-.672-.037 43.965 43.965 0 0 0-.82-.007h-1.134c-.21 0-.435.002-.674.007l-.68.015c-.215.005-.38.012-.497.022 0-.233.01-.43.029-.585.02-.156.049-.298.088-.425.341-.068.543-.182.607-.343s.016-.423-.14-.784l-1.316-3a15.295 15.295 0 0 1-.908-2.75h.425c-.117.438-.246.882-.388 1.331-.141.449-.314.917-.52 1.404l-1.111 2.898c-.127.313-.152.586-.074.82.078.235.283.376.615.424.04.137.068.289.088.455s.03.35.03.555a7.129 7.129 0 0 0-.454-.022l-.608-.015c-.21-.005-.397-.007-.563-.007-.244 0-.495.002-.754.007a5.706 5.706 0 0 0-.607.037c0-.194.01-.37.029-.527.02-.156.054-.317.102-.483a.94.94 0 0 0 .425-.182c.117-.094.232-.242.343-.446.113-.205.247-.499.403-.88l3.088-7.433a2.32 2.32 0 0 1 .46-.065c.142-.006.31-.009.506-.009Zm.542 6.469.263.878c-.654 0-1.334.01-2.042.03s-1.397.063-2.07.13l.22-1.038h3.629ZM253.842 161.768c-.118-.255-.23-.5-.337-.74-.107-.239-.21-.478-.307-.717-.098-.24-.2-.486-.308-.74a10.56 10.56 0 0 0-.41-.884 3.322 3.322 0 0 0-.423-.63 3.764 3.764 0 0 0-.586-.534l.659.117c-.264.01-.496.017-.696.021-.2.007-.426.004-.68-.006l.117-1.068c.146.02.264.033.351.043a2.241 2.241 0 0 0 1.222-.197c.298-.142.542-.361.732-.659.19-.297.286-.67.286-1.12 0-.614-.15-1.097-.447-1.448-.298-.351-.73-.526-1.296-.526a2.412 2.412 0 0 0-.848.131l.117-.483v6.687c0 .479.024.835.073 1.068.05.235.13.388.242.462a.92.92 0 0 0 .46.124c.04.097.064.244.073.439.01.196.016.386.016.571-.186-.01-.425-.017-.717-.022l-.879-.015a43.297 43.297 0 0 0-.747-.007c-.36 0-.729.002-1.104.007-.375.005-.72.018-1.032.037 0-.214.008-.405.022-.571.015-.165.042-.312.081-.439.263-.02.466-.07.607-.154.142-.083.239-.23.293-.446.054-.214.08-.531.08-.952v-4.901c0-.41-.026-.72-.08-.93-.054-.21-.151-.353-.293-.431-.141-.078-.349-.133-.621-.161a2.373 2.373 0 0 1-.074-.527c-.01-.215-.015-.372-.015-.469a67.544 67.544 0 0 0 2.313.044c.312 0 .729-.009 1.251-.029.522-.019 1.065-.03 1.631-.03.82 0 1.49.12 2.012.36.522.239.906.56 1.149.965.244.406.366.857.366 1.353 0 .596-.115 1.11-.343 1.545-.23.434-.545.773-.945 1.017s-.853.4-1.36.468l.277-.19c.293.136.53.285.71.446.18.161.36.386.542.674.18.288.407.694.68 1.221.147.274.278.486.395.637.118.152.25.258.396.322.145.063.331.105.556.124 0 .186-.01.361-.03.527-.02.166-.053.327-.102.483-.664 0-1.257.01-1.778.03-.522.018-.94.053-1.25.102ZM260.296 154.23c0-.41-.025-.717-.073-.922-.05-.205-.145-.348-.286-.431-.142-.082-.344-.14-.607-.169a2.531 2.531 0 0 1-.088-.475c-.02-.19-.03-.369-.03-.535.167.01.393.018.682.023l.906.014a50.988 50.988 0 0 0 1.573 0l.835-.014c.273-.005.506-.012.702-.023 0 .176-.005.347-.014.513-.01.166-.044.331-.103.497-.263.03-.466.083-.608.161s-.236.223-.285.432c-.049.21-.073.519-.073.93v4.887c0 .42.024.737.073.951.05.216.147.363.294.446.145.084.345.135.6.154.038.117.067.271.087.462.02.19.03.372.03.548a14.07 14.07 0 0 0-.937-.037 120.525 120.525 0 0 0-2.613 0c-.453.006-.837.018-1.148.037 0-.166.012-.346.036-.541.024-.195.052-.352.08-.469.264-.02.466-.07.608-.154s.236-.23.286-.446c.048-.214.072-.53.072-.951v-4.888Zm1.594-3.337c-.253 0-.48-.018-.68-.057a3.708 3.708 0 0 1-.578-.162c.166-.273.329-.575.49-.907.161-.332.29-.63.388-.893a7.88 7.88 0 0 1 .6-.095c.205-.024.405-.036.6-.036.351 0 .659.034.922.102-.322.342-.627.678-.914 1.01-.289.332-.564.678-.828 1.038ZM271.461 151.654l3.307 7.347c.225.46.4.808.527 1.047.126.239.246.397.358.475a.848.848 0 0 0 .374.146c.039.127.068.276.088.446.02.172.028.36.028.564a7.59 7.59 0 0 0-.672-.037 43.965 43.965 0 0 0-.82-.007h-1.134c-.21 0-.435.002-.674.007l-.68.015c-.215.005-.38.012-.497.022 0-.233.01-.43.029-.585s.049-.298.088-.425c.341-.068.543-.182.607-.343s.016-.423-.14-.784l-1.316-3a15.295 15.295 0 0 1-.908-2.75h.425c-.117.438-.246.882-.388 1.331-.141.449-.314.917-.52 1.404l-1.111 2.898c-.127.313-.152.586-.074.82.078.235.283.376.615.424.04.137.068.289.088.455.02.166.03.35.03.555a7.129 7.129 0 0 0-.454-.022l-.608-.015c-.21-.005-.397-.007-.563-.007-.244 0-.495.002-.754.007a5.706 5.706 0 0 0-.607.037c0-.194.01-.37.029-.527s.054-.317.102-.483a.94.94 0 0 0 .425-.182c.117-.094.232-.242.343-.446.113-.205.247-.499.403-.88l3.088-7.433a2.32 2.32 0 0 1 .46-.065c.142-.006.31-.009.506-.009Zm.541 6.469.264.878c-.654 0-1.334.01-2.042.03s-1.397.063-2.07.13l.22-1.038h3.628ZM282.743 161.68c0-.195.008-.384.022-.565.015-.18.042-.329.08-.446.264-.02.467-.07.608-.154s.239-.233.293-.453c.054-.22.08-.543.08-.973v-4.859c0-.41-.026-.717-.08-.922-.054-.205-.151-.348-.293-.431-.141-.082-.349-.14-.621-.169a3.367 3.367 0 0 1-.067-.49 7.367 7.367 0 0 1-.022-.52c.215.01.478.018.791.023l1.002.014c.356.005.69.007 1.003.007.223 0 .467-.004.731-.014s.552-.014.864-.014c.546 0 1.082.036 1.61.11a5.572 5.572 0 0 1 1.463.401c.448.196.844.471 1.185.828.342.356.607.809.798 1.36.19.551.285 1.227.285 2.027 0 .79-.097 1.469-.293 2.034-.195.566-.453 1.04-.775 1.42-.322.38-.678.688-1.069.922-.39.234-.79.41-1.2.527-.409.117-.792.195-1.148.234s-.662.058-.915.058c-.263 0-.602.002-1.017.007-.415.006-.844.01-1.288.015l-1.222.015c-.37.004-.639.007-.805.007Zm4.8-1.025c.224 0 .473-.046.747-.14.273-.092.531-.272.776-.541.244-.268.44-.664.592-1.185.151-.523.227-1.222.227-2.1 0-.781-.078-1.431-.234-1.954-.157-.521-.37-.931-.637-1.229a2.337 2.337 0 0 0-.9-.637 2.897 2.897 0 0 0-1.039-.19 2.13 2.13 0 0 0-.534.066.908.908 0 0 0-.373.168l.19-.57v6.688c0 .419.034.748.103.987.067.239.187.405.358.497.17.094.412.14.725.14ZM294.992 151.698c.205.01.463.018.775.023l.989.014c.345.005.68.007 1.002.007h.849v7.289c0 .419.034.748.102.987.068.239.188.405.358.498.171.093.412.139.725.139l-.468.98c-.264 0-.602.003-1.018.008l-1.288.014-1.221.015c-.371.005-.64.008-.805.008 0-.195.007-.384.021-.564.016-.18.042-.33.081-.446.264-.02.466-.071.607-.154.142-.083.24-.234.294-.454.053-.22.08-.543.08-.973v-4.859c0-.41-.027-.716-.08-.921-.055-.206-.152-.35-.294-.432-.141-.082-.348-.14-.621-.168a2.07 2.07 0 0 1-.074-.49c-.009-.2-.014-.374-.014-.52Zm6.292 3.279c-.01.234-.021.488-.036.76-.015.273-.022.581-.022.923 0 .37.007.695.022.973s.027.529.036.753a5.39 5.39 0 0 1-.614-.03 2.534 2.534 0 0 1-.498-.102c-.039-.428-.151-.713-.336-.855-.186-.141-.518-.212-.996-.212h-.878v-.98h.878c.517 0 .862-.079 1.032-.235.171-.156.261-.434.27-.834.156-.069.337-.112.542-.133.205-.018.405-.028.6-.028Zm1.274-3.279c.009.235.028.508.058.82.029.312.064.617.103.914.039.299.087.564.146.798a2.8 2.8 0 0 1-.534.168c-.2.045-.447.066-.74.066a3.053 3.053 0 0 0-.27-.9 1.409 1.409 0 0 0-.623-.629c-.282-.15-.687-.227-1.214-.227h-1.449l.455-.966c.741 0 1.368-.002 1.88-.007.512-.005.944-.009 1.295-.014.351-.005.649-.013.893-.023Zm-.41 6.996c.272.029.525.085.753.168.23.083.403.183.52.3-.107.332-.2.723-.278 1.17-.079.45-.137.894-.176 1.333-.263-.01-.6-.016-1.01-.016-.41 0-.846-.002-1.309-.007-.463-.005-.905-.007-1.325-.007l.469-.98h.204c.43 0 .778-.071 1.047-.213.268-.141.485-.355.651-.644.166-.287.317-.656.454-1.104ZM313.592 161.768a6.91 6.91 0 0 1-1.8-.228 8.083 8.083 0 0 1-1.64-.636c.078-.39.13-.79.154-1.2.025-.41.037-.8.037-1.17a3.6 3.6 0 0 1 .761-.133c.273-.02.531-.029.775-.029.05.586.128 1.046.235 1.383.107.337.28.578.52.725.238.145.558.219.958.219.547 0 .936-.115 1.17-.345.235-.228.352-.49.352-.782s-.115-.541-.344-.747a3.68 3.68 0 0 0-.886-.563l-1.148-.541a6.439 6.439 0 0 1-1.142-.688 3.362 3.362 0 0 1-.885-1.002c-.235-.4-.351-.898-.351-1.493 0-.693.155-1.251.468-1.676.312-.424.724-.74 1.237-.943a4.543 4.543 0 0 1 1.704-.308c.371 0 .74.029 1.105.087.366.059.707.135 1.024.227.317.093.57.203.754.33 0 .38.005.773.015 1.178.01.405.034.725.073.958a1.851 1.851 0 0 1-.695.227 5.127 5.127 0 0 1-.768.066c-.078-.536-.193-.951-.344-1.243-.152-.294-.337-.499-.557-.616a1.579 1.579 0 0 0-.753-.175c-.361 0-.66.083-.9.25-.239.165-.359.413-.359.745s.122.61.366.834c.245.225.556.427.937.607.38.18.785.367 1.215.556.429.19.834.42 1.214.688.38.269.692.6.936.995.245.396.367.886.367 1.47 0 .586-.144 1.104-.432 1.552-.288.45-.712.798-1.273 1.047-.562.248-1.261.373-2.1.373ZM324.831 151.654l3.307 7.347c.225.46.4.808.528 1.047.126.239.246.397.358.475a.848.848 0 0 0 .373.146c.039.127.068.276.088.446.02.172.029.36.029.564a7.59 7.59 0 0 0-.673-.037 43.965 43.965 0 0 0-.82-.007h-1.134c-.21 0-.434.002-.673.007l-.68.015c-.216.005-.38.012-.498.022 0-.233.01-.43.03-.585s.048-.298.087-.425c.342-.068.544-.182.607-.343s.017-.423-.14-.784l-1.316-3a15.295 15.295 0 0 1-.907-2.75h.424c-.117.438-.246.882-.387 1.331-.142.449-.315.917-.52 1.404l-1.112 2.898c-.127.313-.152.586-.074.82.078.235.283.376.616.424.039.137.067.289.087.455s.03.35.03.555a7.129 7.129 0 0 0-.454-.022l-.608-.015c-.209-.005-.397-.007-.563-.007-.244 0-.495.002-.754.007a5.706 5.706 0 0 0-.607.037c0-.194.01-.37.03-.527s.053-.317.102-.483a.94.94 0 0 0 .424-.182c.117-.094.232-.242.344-.446.112-.205.247-.499.403-.88l3.087-7.433a2.32 2.32 0 0 1 .46-.065c.142-.006.31-.009.506-.009Zm.542 6.469.263.878c-.654 0-1.334.01-2.041.03s-1.398.063-2.07.13l.219-1.038h3.629ZM336.728 160.655c.39 0 .715-.066.973-.198.259-.131.474-.342.644-.63.172-.287.325-.665.462-1.133.273.029.524.085.753.168.23.084.402.183.52.3a8.79 8.79 0 0 0-.279 1.17c-.077.45-.136.894-.175 1.333-.264-.01-.6-.015-1.01-.015-.41 0-.839-.003-1.287-.008a84.626 84.626 0 0 0-2.291 0l-1.288.015-1.222.015c-.37.004-.638.007-.805.007 0-.194.008-.383.022-.564.015-.18.042-.329.081-.446.263-.02.466-.07.607-.154.142-.083.239-.233.293-.453.054-.22.08-.543.08-.973v-4.859c0-.41-.026-.717-.08-.922-.054-.205-.151-.348-.293-.431-.141-.082-.349-.14-.621-.169a3.367 3.367 0 0 1-.067-.49 7.367 7.367 0 0 1-.022-.52c.283.01.544.018.783.023l.732.014a40.832 40.832 0 0 0 1.61 0l.856-.014c.282-.005.521-.012.717-.023 0 .176-.005.354-.014.535-.01.18-.044.339-.103.475-.263.03-.466.083-.608.161s-.236.225-.285.44-.073.526-.073.936v4.785c0 .42.034.75.103.988.067.239.187.405.358.497.171.094.412.14.725.14h.204ZM350.337 157.611c0 .839-.058 1.524-.175 2.056-.117.531-.347.968-.688 1.31a2.674 2.674 0 0 1-1.076.6 5.07 5.07 0 0 1-1.455.19c-.957 0-1.713-.127-2.269-.381-.556-.253-.951-.648-1.185-1.186-.235-.535-.352-1.214-.352-2.033v-3.879c0-.428-.024-.748-.073-.958-.049-.21-.141-.356-.277-.44-.138-.081-.333-.143-.586-.182a2.837 2.837 0 0 1-.081-.475 6.351 6.351 0 0 1-.022-.535 38.89 38.89 0 0 0 1.917.044h.651c.259 0 .522-.002.79-.007l.74-.014c.224-.005.395-.013.512-.023 0 .196-.005.376-.014.543-.01.165-.034.32-.073.467-.264.04-.464.1-.6.183-.138.083-.23.23-.28.439-.047.21-.072.53-.072.958v3.644c0 .587.064 1.086.19 1.5.127.416.327.727.6.937.274.21.63.315 1.068.315.225 0 .462-.047.71-.14.249-.091.456-.25.622-.475.108-.127.193-.292.257-.497.062-.205.114-.471.154-.798.037-.327.058-.74.058-1.237v-2.897c0-.478-.03-.851-.088-1.12-.059-.268-.16-.461-.3-.578s-.34-.195-.592-.234a7.927 7.927 0 0 1-.067-.527 5.559 5.559 0 0 1-.022-.483c.137.01.298.017.483.023l.578.014a20.546 20.546 0 0 0 1.339-.007c.283-.01.517-.02.703-.03 0 .176-.008.347-.022.513s-.046.331-.095.497c-.245.029-.432.103-.563.22-.133.117-.223.302-.271.556-.05.254-.074.61-.074 1.068v3.06ZM353.835 161.68c0-.195.007-.384.022-.565.015-.18.042-.329.08-.446.264-.02.466-.07.608-.154s.239-.233.293-.453c.053-.22.08-.543.08-.973v-4.859c0-.41-.027-.717-.08-.922-.054-.205-.152-.348-.293-.431-.142-.082-.349-.14-.622-.169a3.367 3.367 0 0 1-.066-.49 7.367 7.367 0 0 1-.022-.52c.215.01.478.018.79.023l1.003.014c.355.005.69.007 1.003.007.223 0 .467-.004.73-.014s.552-.014.864-.014c.547 0 1.083.036 1.61.11a5.572 5.572 0 0 1 1.464.401c.448.196.844.471 1.185.828.342.356.607.809.798 1.36.19.551.285 1.227.285 2.027 0 .79-.097 1.469-.293 2.034-.195.566-.454 1.04-.776 1.42-.322.38-.677.688-1.068.922-.39.234-.79.41-1.2.527-.41.117-.793.195-1.148.234s-.662.058-.915.058c-.264 0-.602.002-1.017.007-.415.006-.844.01-1.288.015l-1.222.015c-.371.004-.639.007-.805.007Zm4.8-1.025c.224 0 .473-.046.747-.14.273-.092.531-.272.775-.541.245-.268.441-.664.593-1.185.15-.523.227-1.222.227-2.1 0-.781-.078-1.431-.234-1.954-.157-.521-.37-.931-.637-1.229a2.337 2.337 0 0 0-.9-.637 2.897 2.897 0 0 0-1.04-.19 2.13 2.13 0 0 0-.533.066.908.908 0 0 0-.374.168l.191-.57v6.688c0 .419.034.748.103.987.067.239.187.405.357.497.172.094.413.14.725.14Z" style="fill:#69b3e7"/></svg>